<svg width="1800" height="500" xmlns="http://www.w3.org/2000/svg">

 <g>
  <title>Layer 1</title>
  <g data-name="Layer 1" id="ekg">
   <path id="svg_1" fill="#ffffff" class="cls-1" d="m0.6,271.3c14.6,-14.6 18.9,1.8 29.8,3.2c8.2,1.1 14,-8 22.3,-8.8c14.6,-1.5 15.1,8.7 24.7,16.1c13.5,-11 23.4,-202.3 23.4,-202.3s11.5,171.9 13.3,238.6c1.6,-14.4 1.4,-36.9 10.1,-49.7c10.5,-15.3 23.2,-17.8 29.6,-37.5c4.6,-13.9 16,-49.9 32.5,-25.2c10,15 4.8,53.8 24.4,62.1c4,1.7 13.6,-1.7 19.1,-1.8s7.5,3.3 12.1,2.1s7.4,-6.9 11.7,-8.3c13.2,-4.3 14.3,2.9 20.9,13.1c8.9,13.5 7.2,11.9 19.2,2.8c5.9,-4.5 15.3,-12.1 23.5,-10.5c10,1.9 10.4,19.2 16.9,20.2c4.5,0.6 7.6,-7.6 13.1,-8.6c14.9,-2.7 18,13.6 24,23.1c8.9,-11.3 9.2,-33.2 10.8,-46.5c3.4,-27.1 12.8,-147.5 12.8,-147.5s11.5,137.6 13.5,196.5c1.7,-13.1 2.3,-43.4 11.2,-54.3c6.6,-8.2 19.1,-10.5 26.5,-17.7c10.9,-10.7 9.5,-27.1 17.4,-39.9c26.5,-43.4 37.6,60.4 41,76.4c1.2,5.8 1.7,16.8 7.6,20c3,1.7 11.8,-6.8 21.4,-1s23.1,-0.7 34.7,0.4c13.5,1.3 16.6,-1.6 26.9,-10.6c5.5,-4.8 9.6,-12.4 18.4,-11.4c12.5,1.3 11.4,17.4 21.1,21.6c13.7,5.9 13.9,-9.9 24.9,-12.1s15.3,12.4 22.2,19.4c11.4,-14.8 9.1,-48.4 10.4,-66.1c2.8,-38.2 11.8,-174.5 11.8,-174.5s10.9,186.7 13,265.3c1.6,-13.8 1,-38.9 10.8,-50.5c4.3,-5.1 12.7,-3.8 16.1,-7.3s2.8,-7.4 4.4,-11.1c6.8,-14.9 18.3,-37.7 34,-17.8c9.2,11.7 4.2,37.6 18.8,44.6c8.2,3.9 22.3,-2 31.6,-1.8c4.8,0.1 7.3,3.1 12.1,1.4s6.7,-9.7 10.8,-12.5c12.6,-8.5 14.2,-0.9 23,9.2s10.7,9 22.1,0.7c6.4,-4.6 10.1,-10.3 19.1,-10.4c4.9,0 10.2,5.3 14.5,4.8c9.6,-1.1 6.1,-5 12.9,-9.1c28.3,-17.3 27.9,17.9 37.1,38.4c14.7,1.2 22.3,-182.4 22.3,-182.4s10,172.3 11.7,236.2c1.7,-14.8 1.6,-37.1 10.5,-50.2c2.9,-4.4 8.7,-7.1 12.6,-10.5c12.4,-10.8 14,-19.7 19.3,-35s18.8,-38.4 34.5,-17.7c6.4,8.4 4,11.2 11.9,17.1c11.7,8.8 11.2,3.3 24.1,3.5c4.7,0.1 8.6,3.6 13.4,3.4s10.4,-4.5 16.1,-4c12.7,1.1 12.6,9.8 19.6,18.4c10.7,13.2 3.8,5.9 15.7,2.1c13.8,-4.4 7.7,3.5 19.6,5.3s3.7,-6 12.3,-11.3c12.5,-7.6 14.2,7.9 22.8,11c19.5,7 16.7,-31.7 39.5,-4.8c8.3,-19.7 7,-46.1 8.3,-66.8c2.3,-38.4 9.5,-114.8 9.5,-114.8s8.8,175.8 10.5,239.8c1.6,-14.5 2.6,-54.7 11.2,-67.4c10.5,-15.3 23.4,-18.1 29.7,-37.5c4.6,-14.1 16,-49.9 32.4,-25.2c11.5,17.2 4.6,48 23.2,61.4c7.3,-6.6 7,-19.3 20.1,-14.2c5,2 5.4,11.5 9.5,13.2c7,2.8 0.1,0.2 8.2,-1.8s8.6,-10.3 19.1,-4.5c3.3,1.7 6.2,10.1 8.2,13.1c8.1,11.8 7.4,12 18.5,3.4c7.9,-6.2 19.1,-14.9 29.7,-9.2s3.8,20.7 15.6,13c8.4,-5.4 3.6,-23.1 16.7,-26.4c17.3,-4.2 19.3,21.3 30.6,27.2c13.2,-11.6 15.5,-44.2 18.3,-60c2.1,-12.4 16.9,-92.1 16.9,-92.1s11,178.9 14.1,239.9c2.3,-18.7 15.9,-169.8 53.6,-144.9c11.6,7.6 8.3,26.9 17.3,37.2s12.3,5.3 25.3,5c5.2,-0.2 8.5,2.4 13.7,1.2s10.2,-10.5 16.8,-9.9c12.2,1 14.1,21.6 23.1,27.6c3.6,-2.6 6.5,-6.3 10.3,-7.9l0,-277l-1800.4,0l0,273.6c0.8,-0.6 -0.3,-1.4 0.6,-2.3z"/>
   <path id="svg_2" fill="#ffffff" class="cls-1" d="m1789,294.2c-6.1,-0.4 -10.9,-9.7 -13.8,-13.9c-1.6,-2.2 -6.7,-13.5 -8.3,-13.8s-5.3,4.7 -7.4,5c-7.2,0.9 -10.5,5.3 -19.3,5.3c-4.6,0.1 -10.5,-0.1 -14.7,-0.3c-16.4,-0.4 -22.3,-8.3 -28.8,-24.6c-2.2,-5.6 -3.4,-18.8 -9,-21.1c-11.6,-4.8 -15.6,17.3 -18,25c-6.2,20.1 -35.4,174.9 -35.4,174.9s-10,-201.3 -11.8,-237.3c-1.8,13.8 -7.8,96.6 -31.5,96.6c-14.1,0 -18.1,-33.5 -31.1,-25.3c-10.4,6.5 -4.5,36.5 -25,27.2c-14.1,-6.5 -5.9,-24.5 -25.5,-12.9c-6.9,4 -12.8,16 -21.8,15.2c-6.4,-0.6 -10.5,-9.2 -13.7,-13.9l-8.4,-13.8a44.9,44.9 0 0 0 -7.3,5c-8.1,0.9 -6.7,8.8 -16.1,5.3c-6.5,-2.3 -7.1,-12.7 -12.4,-16.5c-4.6,4.7 -5.8,15 -13.6,15.9c-10.1,1.2 -16.5,-14.5 -19.6,-21.7c-5.7,-13 -3.8,-41 -15.5,-48.9c-7.8,2.8 -10.4,19.3 -12.6,26c-5.3,16.3 -10.5,23.5 -23.2,35.3s-13,23 -15.4,41s-11.3,99.5 -12.5,99.8c-3.6,1.2 -6.7,-85.4 -7.7,-120.9c-0.7,-25.9 -2.3,-64.7 -3,-90.6c-1,17 3.7,70.9 -8.3,85.1s-10.8,-1.1 -23.4,-5.3c-7.8,8.6 -7,21.4 -23.1,17.1c-8.5,-2.3 -10.6,-12.3 -18.1,-14.9c-5.6,5.2 -4,14.2 -13.6,15.7c-8,1.1 -13.4,-9.5 -19.1,-8.9s-8.1,10.7 -17.2,7.9c-11.2,-3.4 -10.4,-21.2 -19.2,-25.6c-6.4,-3.3 -16.6,2.2 -24.6,2.4c-3.6,0.1 -12.1,-1.7 -15.6,-2s-4.7,2.9 -7.2,2.5c-4.7,-0.7 -19.2,-8 -22.6,-11.7s-3.6,-16.9 -10.5,-19.8c-12.8,-5.4 -16.5,26.2 -19.4,33.6c-6.6,16.8 -22.5,22 -30.3,36.3c-8.5,15.9 -16.9,132.7 -16.9,132.7s-8,-78.3 -8.8,-103.8q-1.5,-58.7 -3.2,-117.1c-1.5,20.1 0.8,62.6 -13.1,79.6c-21.7,26.4 -19.4,-35.8 -31.5,-39.4c-6.7,-2 -15.7,15.3 -25.7,15.8c-14.3,0.5 -14.3,-6.9 -27.8,2.2c-4.5,3.1 -9.9,10.4 -15.3,11.3c-13.6,2.5 -21.4,-13 -28.5,-22.4c-5.1,4.7 -8.7,13.5 -15,16.6c-8.7,4.3 -13.2,-1.9 -21.7,-1.8c-20,0.1 -32.4,10.2 -43,-14.3c-3,-7.1 -4.1,-36.4 -13.4,-36.3c-7,0.1 -11.2,13.8 -13.2,18.4c-5.1,12.1 -4.8,12.1 -13.6,19.1s-8,2.4 -12,12c-5.4,13.4 -21.5,124.7 -21.5,124.7s-2.5,-92.1 -3.2,-117c-1,-37.4 -2,-74.9 -3.1,-112.3c-1.3,28 -2.5,56.2 -5.9,84c-1.1,8.7 -1.6,36.5 -12.4,41s-12.2,-9.2 -18.5,-14c-11,-8.2 -1.4,-3 -13.3,3.5c-9.5,5.3 -17.4,7.8 -27,0s-7,-19.3 -19.6,-15.5c-6.2,1.9 -12.3,14.3 -18.6,17.6c-11.6,6.1 -17.5,-0.8 -27.3,-0.9c-8.2,0 -15.5,4.4 -23.9,4.5c-3.9,0.1 -7.9,-3.4 -11.9,-3.5s-5.7,3.8 -9,3.6c-20.9,-1.4 -21.3,-28.8 -24,-45.2c-2.3,-14.1 -2.6,-55.5 -15.5,-64.2c-6.6,2.4 -9.8,17.4 -11.6,22.7c-4.5,13.8 -6.5,22.1 -18.9,31c-14.7,10.7 -20.6,9.8 -24.9,26.5c-7.8,30 -14.3,101.9 -14.3,101.9s-8.2,-83.5 -8.8,-101.4l-2.4,-70c-0.9,12.8 -1.2,113.1 -25.6,111.5c-9.9,-0.7 -8.7,-15.6 -14.8,-20.1c-10.9,-7.9 -4.2,-0.8 -11.6,1.2c-13.9,3.7 -11,3.6 -21.1,-5.7c-8.1,-7.3 -0.3,-13.6 -15.9,-7.8c-7.6,2.9 -12.2,14.3 -19.9,15.9c-11.3,2.5 -14.7,-8.6 -20.7,-16.3c-11,-13.8 -4.8,-6.9 -19.3,-1.3c-9.4,3.6 -15.5,-0.4 -24.9,-0.6s-10.3,5.2 -19.9,-2.1c-6.6,-5 -10.6,-15.8 -13.2,-23.3c-4.1,-11.6 -2.9,-36.9 -13.6,-44c-8,2.9 -11.3,22.7 -13.4,29.1c-2.8,8.1 -4.3,14.7 -10,21.5s-15.7,10 -20.2,16.9c-7.3,11.3 -9.7,29.7 -11.1,42.3s-10.5,88.5 -10.5,88.5s-7,-145.6 -8.8,-211.2c-0.9,13.6 -1.3,109.2 -30.4,95.7c-10.2,-4.7 -7.3,-15.2 -21.1,-13c-7,1.1 -10.4,9.5 -19,8.5c-6.3,-0.7 -9.2,-8.7 -14.3,-9.3c-7.2,-0.9 -10.1,6.5 -16.8,8.3l0,217.6l1800.4,0l0,-210.9a15.9,15.9 0 0 1 -11.4,4.6z"/>
  </g>
 </g>
</svg>